<svg width="84" height="84" viewBox="0 0 84 84" fill="none" xmlns="http://www.w3.org/2000/svg">
<path d="M38.4826 76.0081C37.9904 75.965 37.546 76.0144 37.1497 76.1564C36.7533 76.2983 36.435 76.5185 36.1949 76.8168C35.9547 77.1151 35.8169 77.4666 35.7814 77.8712C35.7271 78.4916 35.9001 78.9603 36.3004 79.2774C36.7007 79.5945 37.2496 79.8447 37.947 80.0281C38.3856 80.1413 38.7296 80.2479 38.979 80.3479C39.2285 80.4479 39.4275 80.5808 39.576 80.7467C39.7246 80.9126 39.7871 81.1304 39.7634 81.4002C39.7309 81.7711 39.5674 82.0472 39.2729 82.2287C38.9784 82.4101 38.5952 82.4802 38.1231 82.4388C37.6511 82.3975 37.2675 82.2382 36.9725 81.9609C36.6774 81.6836 36.5209 81.337 36.503 80.9209L35.6331 80.8447C35.6228 81.2719 35.7146 81.6588 35.9085 82.0053C36.1024 82.3519 36.3836 82.633 36.752 82.8487C37.1204 83.0645 37.5541 83.1942 38.0531 83.2379C38.5252 83.2793 38.9523 83.2318 39.3346 83.0954C39.7169 82.959 40.0226 82.7462 40.2518 82.4571C40.481 82.168 40.613 81.8246 40.6479 81.4267C40.7022 80.8063 40.5325 80.3395 40.1386 80.0264C39.7447 79.7133 39.1991 79.4651 38.5016 79.2817C38.0631 79.1685 37.7174 79.0618 37.4645 78.9615C37.2117 78.8612 37.0098 78.7229 36.8588 78.5466C36.7077 78.3703 36.6443 78.1439 36.6685 77.8674C36.7016 77.4898 36.8775 77.2079 37.1962 77.0217C37.5149 76.8356 37.917 76.7638 38.4025 76.8064C38.942 76.8536 39.3745 77.0359 39.7 77.3532C40.0256 77.6705 40.1843 78.07 40.176 78.5518L41.0459 78.628C41.0665 78.1609 40.9796 77.7371 40.7853 77.3565C40.591 76.976 40.2969 76.6682 39.9029 76.4333C39.509 76.1983 39.0356 76.0566 38.4826 76.0081ZM31.8965 74.6952C31.1354 74.4759 30.4438 74.4985 29.8216 74.7631C29.1994 75.0276 28.7211 75.4956 28.3868 76.1671L29.2356 76.4117C29.5044 75.9679 29.8524 75.6648 30.2795 75.5026C30.7067 75.3404 31.1837 75.3352 31.7106 75.487C32.1789 75.622 32.5591 75.8548 32.8513 76.1855C33.1434 76.5163 33.3264 76.9142 33.4002 77.3793C33.474 77.8444 33.4359 78.3371 33.286 78.8575C33.1342 79.3843 32.9038 79.8234 32.5947 80.1746C32.2857 80.5259 31.9195 80.7638 31.4961 80.8884C31.0728 81.0129 30.627 81.0077 30.1586 80.8728C29.6383 80.7228 29.236 80.4625 28.9518 80.0918C28.6677 79.7211 28.5322 79.2805 28.5455 78.7701L27.6966 78.5255C27.6224 79.2719 27.7816 79.9237 28.1741 80.4806C28.5666 81.0375 29.1402 81.4247 29.8947 81.6421C30.5451 81.8295 31.1592 81.8497 31.737 81.7027C32.3148 81.5557 32.8129 81.2572 33.2314 80.8072C33.6499 80.3572 33.9576 79.7907 34.1544 79.1077C34.353 78.4182 34.3945 77.7732 34.2787 77.1728C34.1629 76.5723 33.8995 76.0561 33.4886 75.6242C33.0776 75.1923 32.5469 74.8826 31.8965 74.6952ZM27.2347 73.1011L25.9861 75.5303L24.3696 74.6994L24.3088 71.5971L23.4238 71.1422L23.514 74.4537C23.0458 74.3577 22.607 74.408 22.1977 74.6048C21.7883 74.8016 21.4706 75.1197 21.2447 75.5592C21.0436 75.9505 20.9552 76.337 20.9797 76.7188C21.0042 77.1005 21.135 77.4531 21.3721 77.7767C21.6092 78.1003 21.9354 78.3688 22.3508 78.5823L24.7711 79.8264L28.0204 73.5049L27.2347 73.1011ZM24.0434 75.4451L25.6147 76.2528L24.3567 78.7001L22.7764 77.8877C22.367 77.6773 22.0961 77.3973 21.9638 77.0476C21.8314 76.698 21.8597 76.3395 22.0484 75.9723C22.2403 75.599 22.5169 75.3645 22.8782 75.2686C23.2396 75.1727 23.628 75.2315 24.0434 75.4451ZM20.1712 68.5582C19.658 68.1487 19.1031 67.9052 18.5068 67.8278C17.9104 67.7503 17.3288 67.8362 16.762 68.0854C16.1951 68.3345 15.6964 68.729 15.2658 69.2687C14.8352 69.8084 14.5613 70.3823 14.4442 70.9903C14.3271 71.5984 14.3726 72.1845 14.5805 72.7488C14.7884 73.313 15.149 73.7999 15.6623 74.2094C16.1756 74.6189 16.7304 74.8624 17.3267 74.9399C17.9231 75.0173 18.5047 74.9315 19.0715 74.6823C19.6384 74.4331 20.1371 74.0387 20.5677 73.499C20.9984 72.9592 21.2722 72.3854 21.3893 71.7773C21.5064 71.1693 21.461 70.5832 21.253 70.0189C21.0451 69.4546 20.6845 68.9677 20.1712 68.5582ZM19.6646 69.1932C20.0456 69.4972 20.308 69.8602 20.4518 70.2824C20.5956 70.7045 20.6175 71.1464 20.5177 71.608C20.4179 72.0696 20.1991 72.512 19.8613 72.9353C19.5236 73.3587 19.1408 73.6702 18.7129 73.8701C18.285 74.0699 17.8493 74.1466 17.4057 74.1001C16.9622 74.0536 16.5499 73.8784 16.1689 73.5745C15.7879 73.2705 15.5256 72.9074 15.3818 72.4853C15.238 72.0631 15.216 71.6212 15.3158 71.1597C15.4156 70.6981 15.6344 70.2556 15.9722 69.8323C16.3099 69.409 16.6927 69.0974 17.1206 68.8976C17.5485 68.6978 17.9843 68.6211 18.4278 68.6675C18.8714 68.714 19.2836 68.8892 19.6646 69.1932ZM14.0055 62.6027L13.3924 63.1355L15.517 65.5804L10.7652 69.7098L11.3447 70.3766L16.7096 65.7144L14.0055 62.6027ZM11.2407 58.3602L10.5569 58.7987L12.3053 61.5253L7.00586 64.9235L7.4827 65.6672L13.466 61.8305L11.2407 58.3602ZM8.8028 52.5153L2.85389 54.575L2.09977 52.397L1.33217 52.6627L3.12942 57.8536L3.89702 57.5879L3.14291 55.4098L9.09182 53.3501L8.8028 52.5153ZM7.50922 46.3111C7.42025 45.6606 7.18665 45.1015 6.80843 44.634C6.43021 44.1665 5.94999 43.8273 5.36775 43.6166C4.78552 43.4058 4.15236 43.3472 3.46827 43.4408C2.78417 43.5344 2.18999 43.7608 1.68572 44.1201C1.18145 44.4795 0.809911 44.9351 0.571105 45.487C0.332299 46.0389 0.257381 46.6401 0.346349 47.2907C0.435318 47.9413 0.668912 48.5003 1.04713 48.9678C1.42535 49.4354 1.90558 49.7745 2.48781 49.9852C3.07004 50.196 3.70321 50.2546 4.3873 50.161C5.07139 50.0675 5.66558 49.841 6.16985 49.4817C6.67412 49.1224 7.04566 48.6667 7.28446 48.1148C7.52327 47.5629 7.59819 46.9617 7.50922 46.3111ZM6.7044 46.4212C6.77044 46.9041 6.70986 47.3479 6.52268 47.7527C6.33549 48.1575 6.04653 48.4925 5.65578 48.7577C5.26504 49.023 4.8014 49.1923 4.26485 49.2657C3.72831 49.339 3.23623 49.3004 2.78863 49.1498C2.34102 48.9993 1.97271 48.7541 1.68372 48.4145C1.39472 48.0748 1.2172 47.6635 1.15117 47.1806C1.08513 46.6977 1.1457 46.2539 1.33289 45.8491C1.52008 45.4443 1.80904 45.1093 2.19978 44.8441C2.59052 44.5788 3.05417 44.4095 3.59071 44.3362C4.12726 44.2628 4.61933 44.3014 5.06694 44.452C5.51455 44.6026 5.88285 44.8477 6.17185 45.1874C6.46084 45.527 6.63836 45.9383 6.7044 46.4212ZM7.649 34.5888L6.84346 34.4841L6.35673 38.2299L3.9804 37.9211L4.37162 34.9104L3.56609 34.8057L3.17487 37.8164L0.919368 37.5233L1.38909 33.9085L0.583557 33.8038L0 38.2947L7.04843 39.2106L7.649 34.5888ZM8.06334 33.1014L5.86272 30.3538L9.23758 29.3727L9.55172 28.3752L5.35862 29.5883L2.72651 26.3855L2.43981 27.2959L4.52817 29.8591L1.35402 30.7437L1.04292 31.7316L5.03532 30.6149L7.77664 34.0118L8.06334 33.1014ZM10.3749 26.7074L7.96024 25.4307L8.82399 23.797C9.04229 23.3841 9.15521 22.9786 9.16273 22.5806C9.17025 22.1826 9.07327 21.8193 8.87179 21.4907C8.67031 21.1621 8.37508 20.895 7.9861 20.6894C7.59712 20.4837 7.21242 20.3894 6.83201 20.4065C6.4516 20.4236 6.09826 20.5488 5.77198 20.7822C5.44571 21.0155 5.17342 21.3386 4.95511 21.7515L3.67848 24.1662L9.96203 27.4883L10.3749 26.7074ZM8.0679 23.4891L7.24212 25.0511L4.80949 23.7649L5.64001 22.194C5.85832 21.7811 6.14076 21.5112 6.48733 21.3843C6.83389 21.2575 7.19269 21.2921 7.56372 21.4883C7.93475 21.6844 8.16611 21.9637 8.25781 22.3261C8.34951 22.6886 8.28621 23.0762 8.0679 23.4891ZM15.3476 18.9397L14.699 18.4507L12.7491 21.0372L7.72214 17.2475L7.19038 17.953L12.866 22.2315L15.3476 18.9397ZM18.3495 16.2043C18.8331 15.7602 19.1591 15.2494 19.3274 14.6721C19.4957 14.0948 19.5004 13.5069 19.3415 12.9085C19.1825 12.31 18.8695 11.7565 18.4025 11.2479C17.9355 10.7394 17.4106 10.3805 16.8279 10.1712C16.2451 9.96191 15.6589 9.91658 15.0694 10.0352C14.4799 10.1538 13.9433 10.4352 13.4596 10.8793C12.976 11.3234 12.65 11.8341 12.4817 12.4115C12.3134 12.9888 12.3087 13.5767 12.4677 14.1751C12.6266 14.7736 12.9396 15.3271 13.4066 15.8356C13.8736 16.3442 14.3985 16.7031 14.9813 16.9124C15.564 17.1217 16.1502 17.167 16.7397 17.0484C17.3293 16.9298 17.8659 16.6484 18.3495 16.2043ZM17.8001 15.606C17.4411 15.9356 17.042 16.139 16.6027 16.2161C16.1634 16.2932 15.7235 16.2469 15.2827 16.0772C14.842 15.9075 14.4385 15.6233 14.0722 15.2244C13.7059 14.8255 13.457 14.3993 13.3254 13.9457C13.1938 13.4922 13.1851 13.0499 13.2993 12.6188C13.4135 12.1876 13.6501 11.8073 14.009 11.4776C14.368 11.148 14.7672 10.9446 15.2064 10.8675C15.6457 10.7904 16.0857 10.8366 16.5264 11.0063C16.9671 11.176 17.3706 11.4603 17.7369 11.8592C18.1032 12.2581 18.3521 12.6843 18.4837 13.1378C18.6153 13.5914 18.624 14.0337 18.5098 14.4648C18.3956 14.8959 18.1591 15.2763 17.8001 15.606ZM22.4561 12.7686L21.0415 10.4321L22.5962 9.49074L25.2703 11.0647L26.1215 10.5494L23.2538 8.89083C23.581 8.54241 23.768 8.1423 23.815 7.69052C23.862 7.23873 23.7575 6.80148 23.5015 6.37876C23.2737 6.00237 22.9907 5.72459 22.6528 5.54541C22.3148 5.36624 21.9459 5.29283 21.5461 5.32519C21.1463 5.35755 20.7466 5.49468 20.3471 5.73658L18.0192 7.14594L21.7004 13.2261L22.4561 12.7686ZM22.1321 8.82216L20.6208 9.73719L19.1956 7.3833L20.7157 6.46301C21.1094 6.22461 21.4899 6.14067 21.857 6.21118C22.2241 6.2817 22.5146 6.49357 22.7285 6.8468C22.9459 7.20582 23.0007 7.56432 22.893 7.92232C22.7853 8.28031 22.5317 8.58026 22.1321 8.82216ZM31.3989 8.41891L31.1027 7.66253L27.5855 9.03981L26.7117 6.80848L29.5387 5.70147L29.2425 4.94509L26.4156 6.0521L25.5862 3.93422L28.9805 2.60507L28.6843 1.84869L24.4675 3.49995L27.0591 10.1183L31.3989 8.41891ZM45.3647 7.24225C45.8563 7.29256 46.3013 7.24963 46.6997 7.11348C47.098 6.97733 47.4195 6.76186 47.664 6.46707C47.9085 6.17227 48.0515 5.82285 48.0928 5.41881C48.1562 4.79928 47.9901 4.32807 47.5944 4.00519C47.1988 3.68231 46.6536 3.42409 45.9589 3.23052C45.5221 3.11096 45.1797 2.99937 44.9317 2.89574C44.6837 2.79211 44.4867 2.65627 44.3406 2.48822C44.1945 2.32016 44.1352 2.10145 44.1627 1.83209C44.2006 1.46172 44.3682 1.18796 44.6653 1.01083C44.9624 0.833692 45.3466 0.769244 45.818 0.817482C46.2894 0.865721 46.6706 1.03061 46.9616 1.31216C47.2526 1.59371 47.404 1.94263 47.4159 2.35892L48.2846 2.44782C48.301 2.02082 48.2149 1.63264 48.0261 1.2833C47.8373 0.933958 47.5602 0.648737 47.195 0.427637C46.8298 0.206538 46.398 0.0704907 45.8997 0.0194959C45.4283 -0.0287424 45.0005 0.0125354 44.6163 0.14333C44.232 0.274125 43.9232 0.482385 43.6898 0.768112C43.4565 1.05384 43.3194 1.39536 43.2788 1.79267C43.2154 2.4122 43.3783 2.88138 43.7676 3.2002C44.1568 3.51902 44.6988 3.77522 45.3935 3.96879C45.8303 4.08834 46.1744 4.20011 46.4258 4.30408C46.6771 4.40805 46.877 4.54929 47.0254 4.72779C47.1739 4.90629 47.234 5.13359 47.2057 5.40969C47.1671 5.7868 46.9872 6.06608 46.6658 6.24754C46.3444 6.42899 45.9413 6.49491 45.4565 6.4453C44.9177 6.39017 44.4879 6.20159 44.167 5.87955C43.8462 5.55752 43.6933 5.15573 43.7086 4.67416L42.8399 4.58526C42.8126 5.05198 42.8932 5.47702 43.082 5.86038C43.2707 6.24374 43.5603 6.55576 43.9507 6.79645C44.3412 7.03714 44.8125 7.18574 45.3647 7.24225ZM51.9282 8.64879C52.686 8.87899 53.3779 8.8663 54.0038 8.61073C54.6297 8.35516 55.1147 7.89405 55.4587 7.22741L54.6134 6.97065C54.3383 7.4106 53.986 7.70861 53.5566 7.86468C53.1271 8.02076 52.6501 8.01911 52.1254 7.85975C51.6591 7.71809 51.2822 7.47981 50.9949 7.1449C50.7075 6.80999 50.5302 6.40949 50.4631 5.9434C50.396 5.47731 50.4411 4.98519 50.5985 4.46703C50.7579 3.94239 50.9946 3.50668 51.3086 3.15991C51.6227 2.81314 51.9922 2.58051 52.4173 2.46203C52.8424 2.34355 53.2882 2.35513 53.7545 2.49679C54.2727 2.65419 54.6712 2.92027 54.95 3.29502C55.2288 3.66977 55.3579 4.11225 55.3373 4.62245L56.1826 4.87921C56.2675 4.13386 56.1177 3.47994 55.7332 2.91745C55.3487 2.35495 54.7808 1.95959 54.0295 1.73136C53.3818 1.53461 52.768 1.50558 52.1882 1.64428C51.6084 1.78298 51.106 2.07431 50.6811 2.51828C50.2562 2.96225 49.9404 3.52428 49.7339 4.20437C49.5253 4.89093 49.4746 5.53524 49.5818 6.13731C49.689 6.73937 49.9449 7.25928 50.3496 7.69704C50.7543 8.13479 51.2805 8.45204 51.9282 8.64879ZM56.5669 10.3114L57.8505 7.90044L59.4548 8.75457L59.4708 11.8575L60.3492 12.3251L60.3067 9.01256C60.7735 9.11535 61.213 9.07132 61.6251 8.88048C62.0373 8.68964 62.3595 8.37613 62.5917 7.93994C62.7985 7.55155 62.8924 7.16633 62.8734 6.78428C62.8544 6.40223 62.7287 6.04774 62.4963 5.7208C62.2639 5.39386 61.9416 5.12064 61.5293 4.90114L59.1273 3.62234L55.7871 9.89631L56.5669 10.3114ZM59.7917 8.01369L58.2322 7.18342L59.5253 4.7545L61.0938 5.58954C61.5001 5.80585 61.7669 6.08976 61.8942 6.44127C62.0215 6.79278 61.9881 7.15077 61.7941 7.51526C61.5968 7.88573 61.3169 8.11629 60.9542 8.20694C60.5915 8.2976 60.204 8.23318 59.7917 8.01369ZM63.5588 14.9535C64.066 15.3704 64.6172 15.622 65.2124 15.7081C65.8076 15.7942 66.3904 15.7168 66.9608 15.476C67.5312 15.2351 68.0356 14.8479 68.4741 14.3145C68.9125 13.7811 69.1947 13.2113 69.3206 12.605C69.4465 11.9988 69.4096 11.412 69.2099 10.8448C69.0102 10.2776 68.6568 9.78549 68.1495 9.36854C67.6423 8.9516 67.0911 8.70006 66.4959 8.61393C65.9008 8.52779 65.318 8.60518 64.7476 8.84607C64.1771 9.08696 63.6727 9.4741 63.2343 10.0075C62.7958 10.5409 62.5136 11.1107 62.3877 11.717C62.2618 12.3232 62.2987 12.91 62.4984 13.4772C62.6981 14.0444 63.0516 14.5365 63.5588 14.9535ZM64.0746 14.326C63.6981 14.0165 63.441 13.6496 63.3034 13.2254C63.1658 12.8012 63.1502 12.3591 63.2568 11.899C63.3633 11.4389 63.5885 10.9997 63.9324 10.5813C64.2763 10.163 64.6636 9.85703 65.0943 9.66344C65.5251 9.46986 65.9619 9.39953 66.4047 9.45245C66.8475 9.50537 67.2572 9.68658 67.6337 9.99607C68.0102 10.3056 68.2673 10.6724 68.4049 11.0966C68.5426 11.5208 68.5581 11.963 68.4516 12.423C68.345 12.8831 68.1198 13.3223 67.7759 13.7407C67.4321 14.159 67.0448 14.465 66.614 14.6586C66.1832 14.8522 65.7464 14.9225 65.3036 14.8696C64.8608 14.8166 64.4511 14.6354 64.0746 14.326ZM69.6476 21.0028L70.2683 20.4787L68.1785 18.004L72.9884 13.9423L72.4184 13.2674L66.9879 17.8531L69.6476 21.0028ZM72.3431 25.2759L73.0331 24.8473L71.3238 22.0959L76.6713 18.7739L76.2052 18.0235L70.1677 21.7742L72.3431 25.2759ZM74.6995 31.1604L80.6773 29.186L81.4002 31.3746L82.1715 31.1198L80.4486 25.9037L79.6773 26.1585L80.4002 28.3471L74.4225 30.3216L74.6995 31.1604ZM75.9023 37.379C75.9821 38.0307 76.2077 38.593 76.5793 39.0659C76.9508 39.5387 77.4262 39.8846 78.0054 40.1036C78.5845 40.3226 79.2168 40.3901 79.9022 40.3063C80.5875 40.2225 81.1848 40.0045 81.6942 39.6523C82.2035 39.3002 82.5814 38.8499 82.828 38.3014C83.0747 37.7529 83.1581 37.1528 83.0784 36.5011C82.9986 35.8493 82.773 35.287 82.4014 34.8142C82.0299 34.3413 81.5545 33.9954 80.9753 33.7764C80.3961 33.5575 79.7639 33.4899 79.0785 33.5737C78.3932 33.6576 77.7958 33.8756 77.2865 34.2277C76.7772 34.5799 76.3992 35.0302 76.1526 35.5786C75.906 36.1271 75.8226 36.7272 75.9023 37.379ZM76.7086 37.2803C76.6494 36.7965 76.7163 36.3536 76.9092 35.9515C77.1021 35.5494 77.3958 35.2185 77.7903 34.9589C78.1847 34.6992 78.6507 34.5365 79.1882 34.4707C79.7258 34.405 80.2173 34.4506 80.6627 34.6075C81.1081 34.7644 81.4729 35.0147 81.7571 35.3584C82.0412 35.7022 82.2129 36.1159 82.2721 36.5997C82.3312 37.0835 82.2644 37.5264 82.0715 37.9285C81.8786 38.3306 81.5849 38.6615 81.1904 38.9212C80.796 39.1808 80.33 39.3435 79.7924 39.4093C79.2549 39.4751 78.7634 39.4295 78.318 39.2726C77.8726 39.1156 77.5078 38.8653 77.2236 38.5216C76.9395 38.1779 76.7678 37.7641 76.7086 37.2803ZM75.5935 49.0999L76.3974 49.2163L76.9386 45.4781L79.3102 45.8214L78.8752 48.8261L79.6791 48.9425L80.1141 45.9378L82.3651 46.2637L81.8428 49.8714L82.6467 49.9878L83.2956 45.5059L76.2613 44.4874L75.5935 49.0999ZM75.159 50.5809L77.32 53.3597L73.9314 54.2924L73.6031 55.2853L77.8131 54.1324L80.3991 57.3726L80.6988 56.4664L78.6473 53.8735L81.8338 53.0344L82.159 52.0511L78.1511 53.1105L75.4586 49.6747L75.159 50.5809ZM72.7538 56.9434L75.1498 58.2547L74.2627 59.8758C74.0384 60.2856 73.9197 60.6894 73.9064 61.0872C73.8932 61.4851 73.9849 61.8498 74.1816 62.1812C74.3784 62.5126 74.6697 62.784 75.0557 62.9952C75.4417 63.2065 75.825 63.3063 76.2056 63.2946C76.5862 63.283 76.9413 63.1629 77.2709 62.9343C77.6005 62.7057 77.8774 62.3865 78.1017 61.9768L79.4129 59.5807L73.1779 56.1685L72.7538 56.9434ZM75.0142 60.1945L75.8624 58.6447L78.2763 59.9657L77.4232 61.5245C77.199 61.9342 76.9127 62.2 76.5643 62.3219C76.216 62.4438 75.8577 62.404 75.4895 62.2025C75.1214 62.001 74.8941 61.7184 74.8076 61.3547C74.7211 60.991 74.79 60.6043 75.0142 60.1945ZM67.6642 64.6445L68.3057 65.1429L70.293 62.5851L75.2642 66.4476L75.8062 65.75L70.1936 61.3891L67.6642 64.6445ZM64.6249 67.3355C64.135 67.7727 63.8019 68.2788 63.6254 68.8537C63.4489 69.4285 63.4359 70.0163 63.5864 70.6169C63.7368 71.2176 64.0419 71.7755 64.5017 72.2906C64.9615 72.8057 65.4812 73.172 66.061 73.3895C66.6407 73.607 67.2261 73.6607 67.8173 73.5504C68.4085 73.4402 68.949 73.1664 69.4389 72.7292C69.9287 72.292 70.2619 71.7859 70.4384 71.2111C70.6149 70.6362 70.6279 70.0484 70.4774 69.4478C70.327 68.8471 70.0219 68.2893 69.5621 67.7741C69.1023 67.259 68.5826 66.8927 68.0028 66.6752C67.4231 66.4577 66.8376 66.404 66.2465 66.5143C65.6553 66.6245 65.1148 66.8983 64.6249 67.3355ZM65.1658 67.9415C65.5294 67.617 65.9314 67.4193 66.3717 67.3484C66.812 67.2775 67.2513 67.33 67.6896 67.506C68.1278 67.6819 68.5273 67.9718 68.8879 68.3759C69.2485 68.7799 69.4913 69.2096 69.6165 69.665C69.7417 70.1203 69.7441 70.5627 69.6238 70.9922C69.5035 71.4216 69.2616 71.7986 68.898 72.1232C68.5344 72.4477 68.1324 72.6454 67.6921 72.7163C67.2518 72.7872 66.8125 72.7346 66.3742 72.5587C65.9359 72.3828 65.5365 72.0929 65.1759 71.6888C64.8153 71.2848 64.5724 70.8551 64.4473 70.3997C64.3221 69.9444 64.3197 69.502 64.44 69.0725C64.5602 68.6431 64.8022 68.2661 65.1658 67.9415ZM60.4672 70.7109L61.8481 73.0675L60.28 73.9864L57.6288 72.3742L56.7703 72.8773L59.6139 74.5768C59.2818 74.9205 59.089 75.3179 59.0356 75.769C58.9821 76.22 59.0804 76.6587 59.3302 77.0851C59.5527 77.4647 59.8316 77.7465 60.1669 77.9305C60.5023 78.1145 60.8701 78.1932 61.2703 78.1666C61.6705 78.1399 62.0722 78.0086 62.4751 77.7724L64.8229 76.3966L61.2293 70.2643L60.4672 70.7109ZM60.7345 74.6616L62.2588 73.7683L63.6501 76.1424L62.117 77.0408C61.7199 77.2735 61.3382 77.352 60.9722 77.2762C60.6061 77.2004 60.3186 76.9844 60.1099 76.6282C59.8977 76.2661 59.848 75.9068 59.9608 75.5504C60.0736 75.194 60.3315 74.8977 60.7345 74.6616ZM51.4692 74.9251L51.7543 75.6858L55.2912 74.36L56.1323 76.6039L53.2894 77.6695L53.5745 78.4301L56.4174 77.3645L57.2157 79.4943L53.8024 80.7737L54.0875 81.5343L58.328 79.9448L55.8333 73.2893L51.4692 74.9251Z" fill="white"/>
</svg>
