<svg width="25" height="25" viewBox="0 0 25 25" fill="none" xmlns="http://www.w3.org/2000/svg">
<path d="M21.6001 11.4367C22.068 12.0487 22.068 12.875 21.6001 13.486C20.1262 15.41 16.5901 19.3716 12.4617 19.3716C8.33335 19.3716 4.79727 15.41 3.32341 13.486C3.09575 13.1929 2.97217 12.8324 2.97217 12.4614C2.97217 12.0902 3.09575 11.7297 3.32341 11.4367C4.79727 9.51264 8.33335 5.55109 12.4617 5.55109C16.5901 5.55109 20.1262 9.51264 21.6001 11.4367Z" stroke="#35FBCD"/>
<path d="M12.4615 15.4231C14.0971 15.4231 15.4231 14.0971 15.4231 12.4615C15.4231 10.8259 14.0971 9.5 12.4615 9.5C10.8259 9.5 9.5 10.8259 9.5 12.4615C9.5 14.0971 10.8259 15.4231 12.4615 15.4231Z" stroke="#35FBCD"/>
</svg>
