<svg width="21" height="20" viewBox="0 0 21 20" fill="none" xmlns="http://www.w3.org/2000/svg">
<path d="M19.0896 3.42822L3.67825 18.8395C3.05225 19.4655 2.14944 19.5771 1.66118 19.0889C1.17292 18.6006 1.28448 17.6978 1.91048 17.0718L17.3218 1.66045C17.9478 1.03448 18.8506 0.922901 19.3388 1.41118C19.8271 1.89947 19.7155 2.80225 19.0896 3.42822Z" fill="white"/>
<path d="M1.91039 3.42822L17.3217 18.8395C17.9477 19.4655 18.8505 19.5771 19.3388 19.0889C19.827 18.6006 19.7155 17.6978 19.0895 17.0718L3.67815 1.66045C3.05218 1.03448 2.14937 0.922901 1.66109 1.41118C1.17281 1.89947 1.28442 2.80225 1.91039 3.42822Z" fill="white"/>
</svg>
