<svg width="50" height="50" viewBox="0 0 50 50" fill="none" xmlns="http://www.w3.org/2000/svg">
<g filter="url(#filter0_b_81_324)">
<path d="M1 17C1 9.45753 1 5.68629 3.34315 3.34315C5.68629 1 9.45753 1 17 1H33C40.5425 1 44.3137 1 46.6569 3.34315C49 5.68629 49 9.45753 49 17V33C49 40.5425 49 44.3137 46.6569 46.6569C44.3137 49 40.5425 49 33 49H17C9.45753 49 5.68629 49 3.34315 46.6569C1 44.3137 1 40.5425 1 33V17Z" fill="black" fill-opacity="0.6"/>
<path d="M36.761 24.4767L26.2605 15.1906C26.1536 15.0961 26.02 15.0334 25.8762 15.0101C25.7325 14.9868 25.5846 15.004 25.4509 15.0595C25.3172 15.115 25.2034 15.2064 25.1234 15.3225C25.0434 15.4387 25.0007 15.5745 25.0005 15.7135V20.7294C17.4687 21.0394 13 26.0568 13 34.2857C13.0002 34.4406 13.0533 34.5913 13.1512 34.715C13.2492 34.8386 13.3867 34.9287 13.543 34.9714C13.6101 34.9907 13.6799 35.0003 13.75 35C13.8772 35 14.0024 34.9692 14.1136 34.9104C14.2249 34.8517 14.3186 34.767 14.3861 34.6643C16.2491 31.8256 18.3507 29.4583 25.0005 29.294V34.2857C25.0007 34.4246 25.0434 34.5604 25.1234 34.6766C25.2034 34.7928 25.3172 34.8842 25.4509 34.9397C25.5846 34.9952 25.7325 35.0123 25.8762 34.989C26.02 34.9657 26.1536 34.903 26.2605 34.8086L36.761 25.5224C36.8364 25.4556 36.8965 25.3747 36.9377 25.2847C36.9788 25.1947 37 25.0977 37 24.9996C37 24.9014 36.9788 24.8044 36.9377 24.7144C36.8965 24.6245 36.8364 24.5435 36.761 24.4767Z" fill="white"/>
<path d="M2.98959 2.98959C1.70964 4.26955 1.0977 5.92125 0.797352 8.1552C0.499993 10.3669 0.499996 13.2226 0.5 16.9602V17V33V33.0398C0.499996 36.7774 0.499993 39.6331 0.797352 41.8448C1.0977 44.0788 1.70964 45.7304 2.98959 47.0104C4.26955 48.2904 5.92125 48.9023 8.1552 49.2026C10.3669 49.5 13.2226 49.5 16.9602 49.5H17H33H33.0398C36.7774 49.5 39.6331 49.5 41.8448 49.2026C44.0788 48.9023 45.7304 48.2904 47.0104 47.0104C48.2904 45.7304 48.9023 44.0788 49.2026 41.8448C49.5 39.6331 49.5 36.7774 49.5 33.0398V33V17V16.9602C49.5 13.2226 49.5 10.3669 49.2026 8.1552C48.9023 5.92125 48.2904 4.26955 47.0104 2.98959C45.7304 1.70964 44.0788 1.0977 41.8448 0.797352C39.6331 0.499993 36.7774 0.499996 33.0398 0.5H33H17H16.9602C13.2226 0.499996 10.3669 0.499993 8.1552 0.797352C5.92125 1.0977 4.26955 1.70964 2.98959 2.98959Z" stroke="white" stroke-opacity="0.2"/>
</g>
<defs>
<filter id="filter0_b_81_324" x="-8" y="-8" width="66" height="66" filterUnits="userSpaceOnUse" color-interpolation-filters="sRGB">
<feFlood flood-opacity="0" result="BackgroundImageFix"/>
<feGaussianBlur in="BackgroundImageFix" stdDeviation="4"/>
<feComposite in2="SourceAlpha" operator="in" result="effect1_backgroundBlur_81_324"/>
<feBlend mode="normal" in="SourceGraphic" in2="effect1_backgroundBlur_81_324" result="shape"/>
</filter>
</defs>
</svg>
