<svg width="211" height="19" viewBox="0 0 211 19" fill="none" xmlns="http://www.w3.org/2000/svg">
<path d="M8.71874 18.504C11.2867 18.504 16.2787 17.784 16.2787 12.624C16.2787 9.98399 14.9587 7.48798 11.8627 7.48798C10.1827 7.48798 8.47874 8.25599 7.06274 8.25599C5.31074 8.25599 4.87874 7.17599 4.87874 6.02399C4.87874 3.98398 6.27074 2.99999 8.04674 2.99999C10.0867 2.99999 11.4067 4.12799 11.4307 6.07199H15.6787C15.6787 1.94398 12.3427 0.359985 8.21474 0.359985C2.38274 0.359985 0.750742 3.55198 0.750742 6.28798C0.750742 8.56799 1.87874 11.04 5.35874 11.04C7.18274 11.04 8.74274 10.32 9.99074 10.32C11.5987 10.32 12.1027 11.424 12.1027 12.672C12.1027 14.88 10.4947 15.696 8.71874 15.696C6.39074 15.696 4.90274 14.592 4.87874 12.336H0.510742C0.558742 17.4 4.66274 18.504 8.71874 18.504Z" fill="#35FBCD"/>
<path d="M21.1916 18H25.3916V10.704H33.5276V18H37.7276V0.863985H33.5276V7.63199H25.3916V0.863985H21.1916V18Z" fill="#35FBCD"/>
<path d="M41.8056 18H45.7416L47.1096 14.136H53.4216L54.7896 18H59.3256L52.8696 0.863985H48.3096L41.8056 18ZM47.8776 11.472L50.2776 4.60799L52.6776 11.472H47.8776Z" fill="#35FBCD"/>
<path d="M63.4447 18H66.7567L67.9327 5.08799L71.6527 18H76.4527L80.1247 5.15999L81.2527 18H85.3567L83.8927 0.863985H77.8207L74.3167 13.344L70.7887 0.863985H64.9087L63.4447 18Z" fill="#35FBCD"/>
<path d="M91.2979 18H95.5219V0.863985H91.2979V18Z" fill="#35FBCD"/>
<path d="M101.479 18H104.959V6.86399L113.719 18H117.799V0.863985H114.295V11.928L105.727 0.863985H101.479V18Z" fill="#35FBCD"/>
<path d="M132.224 18H136.424V10.704H144.56V18H148.76V0.863985H144.56V7.63199H136.424V0.863985H132.224V18Z" fill="#35FBCD"/>
<path d="M152.838 18H156.774L158.142 14.136H164.454L165.822 18H170.358L163.902 0.863985H159.342L152.838 18ZM158.91 11.472L161.31 4.60799L163.71 11.472H158.91Z" fill="#35FBCD"/>
<path d="M174.478 18H178.678V13.128L181.294 10.464L186.31 18H190.822L183.862 7.84799L190.726 0.863985H186.166L178.678 8.37599V0.863985H174.478V18Z" fill="#35FBCD"/>
<path d="M199.346 18H203.57V10.512L210.194 0.863985H205.682L201.842 6.52799L198.002 0.863985H192.698L199.346 10.512V18Z" fill="#35FBCD"/>
</svg>
