<svg width="196" height="196" viewBox="0 0 196 196" fill="none" xmlns="http://www.w3.org/2000/svg">
<g clip-path="url(#clip0_266_8)">
<rect width="196" height="196" fill="white"/>
<rect width="196" height="196" rx="40" fill="#35FBCD"/>
<g clip-path="url(#clip1_266_8)">
<path d="M40.1719 158C40.1719 157.358 40.1719 156.914 40.1719 156.47C40.1719 146.548 40.1719 136.577 40.1226 126.655C40.1226 125.421 40.5175 125.174 41.6528 125.174C54.3883 125.223 67.1238 125.174 79.8593 125.174C80.3529 125.174 80.8465 125.174 81.4882 125.174C81.4882 124.582 81.4882 124.088 81.4882 123.594C81.4882 117.276 81.4882 110.958 81.4882 104.639C81.4882 103.751 81.6857 103.356 82.7223 103.356C92.891 103.405 103.01 103.356 113.179 103.405C113.475 103.405 113.821 103.455 114.265 103.504C114.265 110.711 114.265 117.868 114.265 125.125C117.918 125.125 121.422 125.125 125.125 125.125C125.125 110.76 125.125 96.4944 125.125 81.8338C127.691 82.5249 130.061 82.9198 132.332 83.7589C146.104 88.9913 154.643 98.8145 157.309 113.327C161.11 133.763 147.091 153.755 126.605 157.309C124.088 157.753 121.571 158 119.004 158C93.3352 158.049 67.6668 158.049 41.9983 158.049C41.4553 158 40.9124 158 40.1719 158Z" fill="black"/>
<path d="M155.581 38C155.581 48.9585 155.581 59.7688 155.581 70.6779C141.809 70.6779 128.136 70.6779 114.265 70.6779C114.265 77.9835 114.265 85.1411 114.265 92.4467C113.673 92.4961 113.278 92.5455 112.833 92.5455C102.862 92.5455 92.891 92.5455 82.8705 92.5948C81.6858 92.5948 81.4389 92.1999 81.4389 91.1139C81.4883 84.8943 81.4389 78.6253 81.4389 72.4056C81.4389 71.912 81.4389 71.4183 81.4389 70.8754C77.8355 70.8754 74.3308 70.8754 70.6286 70.8754C70.6286 85.2398 70.6286 99.5056 70.6286 114.166C68.4073 113.623 66.3834 113.327 64.4583 112.636C50.1432 107.552 41.1592 97.6791 38.4937 82.673C34.9889 62.0889 48.07 43.1337 68.4566 38.7898C70.7767 38.2962 73.1954 38.0494 75.5155 38C101.628 38 127.79 38 153.903 38C154.446 38 154.94 38 155.581 38Z" fill="black"/>
</g>
</g>
<defs>
<clipPath id="clip0_266_8">
<rect width="196" height="196" fill="white"/>
</clipPath>
<clipPath id="clip1_266_8">
<rect width="119.901" height="120" fill="white" transform="translate(38 38)"/>
</clipPath>
</defs>
</svg>
